<svg width="50" height="50" viewBox="0 0 50 50" fill="none" xmlns="http://www.w3.org/2000/svg">
<path d="M44.4445 8.33337H5.55561C4.8189 8.33337 4.11236 8.62603 3.59142 9.14697C3.07049 9.6679 2.77783 10.3744 2.77783 11.1112V38.8889C2.77783 39.6256 3.07049 40.3322 3.59142 40.8531C4.11236 41.374 4.8189 41.6667 5.55561 41.6667H44.4445C45.1812 41.6667 45.8878 41.374 46.4087 40.8531C46.9296 40.3322 47.2223 39.6256 47.2223 38.8889V11.1112C47.2223 10.3744 46.9296 9.6679 46.4087 9.14697C45.8878 8.62603 45.1812 8.33337 44.4445 8.33337ZM42.3056 38.8889H7.86117L17.5834 28.8334L15.5834 26.9028L5.55561 37.2778V13.2223L22.8195 30.4028C23.34 30.9202 24.044 31.2106 24.7778 31.2106C25.5117 31.2106 26.2157 30.9202 26.7362 30.4028L44.4445 12.7917V37.0973L34.2223 26.875L32.2639 28.8334L42.3056 38.8889ZM7.37505 11.1112H42.1945L24.7778 28.4306L7.37505 11.1112Z" fill="#2D2355"/>
</svg>
