<?xml version="1.0" standalone="no"?>
<!DOCTYPE svg PUBLIC "-//W3C//DTD SVG 20010904//EN"
 "http://www.w3.org/TR/2001/REC-SVG-20010904/DTD/svg10.dtd">
<svg version="1.0" xmlns="http://www.w3.org/2000/svg"
 width="1247.000000pt" height="735.000000pt" viewBox="0 0 1247.000000 735.000000"
 preserveAspectRatio="xMidYMid meet">
<metadata>
Created by potrace 1.16, written by Peter Selinger 2001-2019
</metadata>
<g transform="translate(0.000000,735.000000) scale(0.100000,-0.100000)"
fill="#000000" stroke="none">
<path d="M2070 1378 c-385 -55 -726 -383 -880 -847 -63 -189 -114 -532 -79
-530 8 0 220 242 472 537 l457 537 -40 3 c-22 2 -40 5 -40 8 0 2 40 55 88 117
48 61 101 129 116 150 l28 37 -28 -1 c-16 -1 -58 -6 -94 -11z"/>
<path d="M255 975 c30 -442 263 -815 592 -951 46 -18 77 -24 146 -24 48 0 87
2 87 4 0 4 -432 835 -494 951 l-27 50 6 -115 c3 -63 12 -149 19 -190 7 -41 13
-76 12 -77 -1 -1 -73 91 -161 204 -88 114 -166 214 -173 222 -11 13 -12 1 -7
-74z"/>
</g>
</svg>
