<svg width="1336" height="768" viewBox="0 0 1336 768" fill="none" xmlns="http://www.w3.org/2000/svg">
<g clip-path="url(#clip0)">
<rect width="1336" height="768" fill="#F9F9F9"/>
<path d="M26 655.405C26 718.609 65.651 769.753 114.652 769.753L26 655.405Z" fill="#3F3D56"/>
<path d="M114.652 769.753C114.652 705.839 158.9 654.12 213.582 654.12L114.652 769.753Z" fill="#2C2255"/>
<path d="M58.1201 661.135C58.1201 721.172 83.4048 769.753 114.652 769.753L58.1201 661.135Z" fill="#2C2255"/>
<path d="M114.652 769.753C114.652 688.085 165.796 622 229 622L114.652 769.753Z" fill="#3F3D56"/>
<path d="M1410.36 152.613C1409.86 155.177 1409.26 157.714 1408.56 160.226C1408.48 160.517 1408.4 160.805 1408.31 161.096H1398.54C1397.71 161.097 1396.91 161.418 1396.33 161.99C1395.74 162.561 1395.41 163.335 1395.41 164.143V191.181C1395.11 191.716 1394.81 192.247 1394.51 192.778C1392.96 195.521 1391.34 198.232 1389.7 200.909C1362.8 244.415 1325.28 280.822 1280.46 306.916L1283.11 301.101C1282.14 301.035 1281.16 300.97 1280.19 300.905C1259.01 299.499 1237.75 297.941 1217.07 293.318C1195.43 288.483 1174.27 280.095 1157.31 266.189C1140.35 252.278 1127.91 232.413 1126.19 210.92C1125.61 203.533 1126.38 196.106 1128.46 188.979C1132.43 175.259 1141.12 162.916 1153.66 155.612C1173.34 144.143 1199.02 146.48 1219.78 156.021C1240.53 165.558 1257.42 181.344 1273.91 196.857C1257.26 169.132 1234.08 145.636 1206.26 128.295C1197.05 122.567 1187.27 117.466 1179.43 110.045C1171.6 102.628 1165.82 92.2299 1167.21 81.6924C1168.78 69.7403 1178.86 60.6695 1188.96 53.675C1193 50.8806 1197.16 48.2299 1201.45 45.7925C1213.57 38.898 1226.68 33.6967 1240.52 31.7685C1259.27 29.1526 1279.52 33.1222 1293.9 45.1004C1310.1 58.5977 1316.74 80.3648 1316.11 101.188C1326.09 87.1026 1341.48 76.3213 1358.85 75.8643C1376.9 75.3942 1394.05 86.4628 1403.09 101.636C1412.12 116.804 1413.74 135.399 1410.36 152.613Z" fill="#E6E6E6"/>
<path d="M1296.21 211.109C1306.78 210.206 1316.54 209.15 1326.78 206.336C1336.71 203.609 1346.26 199.044 1353.32 191.589C1360.92 183.571 1365.03 173.158 1367.92 162.792C1369.54 157.013 1370.86 151.152 1372.11 145.29C1373.47 138.93 1374.68 132.541 1375.73 126.124C1377.83 113.352 1379.33 100.504 1380.23 87.5809C1380.34 86.0123 1380.44 84.4431 1380.53 82.8733C1380.58 81.905 1379.03 81.908 1378.98 82.8733C1378.24 95.6117 1376.91 108.301 1374.99 120.94C1373.1 133.358 1370.68 145.722 1367.61 157.917C1365.01 168.248 1361.64 178.741 1354.97 187.341C1348.71 195.406 1339.67 200.677 1329.91 203.828C1319.98 207.034 1309.51 208.314 1299.13 209.266C1297.86 209.383 1297.48 209.494 1296.21 209.603C1295.22 209.688 1295.21 211.194 1296.21 211.109L1296.21 211.109Z" fill="white"/>
<path d="M1129.35 190.09C1142.69 190.808 1155.88 193.066 1168.67 196.816C1181.45 200.559 1193.74 205.753 1205.28 212.291C1216.43 218.613 1226.77 226.177 1236.11 234.831C1245.17 243.234 1253.25 252.585 1260.2 262.714C1267.17 272.868 1272.95 283.75 1277.43 295.155C1277.98 296.551 1278.5 297.954 1279.01 299.364C1279.33 300.273 1280.83 299.882 1280.5 298.964C1276.31 287.318 1270.79 276.165 1264.04 265.716C1257.29 255.265 1249.37 245.574 1240.42 236.818C1231.32 227.927 1221.2 220.085 1210.26 213.449C1187.27 199.548 1161.22 191.138 1134.24 188.911C1132.61 188.778 1130.98 188.669 1129.35 188.584C1128.36 188.531 1128.36 190.037 1129.35 190.09L1129.35 190.09Z" fill="white"/>
<path d="M1201.87 47.5578C1210.4 50.1903 1218.48 54.0244 1225.86 58.9372C1233.39 63.9915 1240.27 69.92 1246.33 76.5913C1252.72 83.6092 1258.39 91.2061 1263.28 99.2773C1268.47 107.799 1272.98 116.695 1276.76 125.887C1280.66 135.323 1283.94 144.99 1286.58 154.829C1289.26 164.785 1291.36 174.881 1292.86 185.069C1294.35 195.148 1295.25 205.301 1295.56 215.48C1295.87 225.213 1295.57 234.955 1294.67 244.653C1293.84 253.7 1292.34 262.677 1290.16 271.511C1288.23 279.489 1285.5 287.266 1282.02 294.734C1281.22 296.429 1280.36 298.101 1279.46 299.749C1278.99 300.604 1280.33 301.366 1280.8 300.509C1284.64 293.376 1287.71 285.874 1289.96 278.124C1292.47 269.497 1294.3 260.693 1295.42 251.791C1296.66 242.134 1297.26 232.409 1297.22 222.677C1297.2 212.453 1296.57 202.238 1295.34 192.084C1294.12 181.803 1292.29 171.597 1289.88 161.515C1287.48 151.417 1284.42 141.474 1280.74 131.744C1277.2 122.325 1272.95 113.168 1268.04 104.347C1263.36 95.9284 1257.91 87.9378 1251.75 80.4723C1245.9 73.3641 1239.22 66.938 1231.85 61.3227C1224.74 55.9243 1216.88 51.5239 1208.51 48.2508C1206.46 47.4601 1204.39 46.745 1202.29 46.1056C1201.33 45.814 1200.92 47.2675 1201.87 47.5578H1201.87Z" fill="white"/>
<path d="M154.689 642.25L155.726 638.63H149.242V636.282C149.242 635.291 150.148 634.326 153.052 634.326H156V631.245C156 631.245 153.325 631 150.767 631C145.427 631 141.936 632.734 141.936 635.872V638.63H136V642.25H141.936V651H149.242V642.25H154.689Z" fill="white"/>
<path d="M209.944 635.984C209.957 636.203 209.957 636.422 209.957 636.641C209.957 643.312 205.833 651 198.294 651C195.972 651 193.815 650.172 192 648.734C192.33 648.781 192.647 648.797 192.99 648.797C194.906 648.797 196.67 648 198.079 646.641C196.277 646.594 194.766 645.141 194.246 643.141C194.5 643.187 194.754 643.219 195.02 643.219C195.388 643.219 195.756 643.156 196.099 643.047C194.221 642.578 192.812 640.547 192.812 638.094V638.031C193.358 638.406 193.992 638.641 194.665 638.672C193.561 637.766 192.838 636.219 192.838 634.469C192.838 633.531 193.041 632.672 193.396 631.922C195.414 634.984 198.447 636.984 201.848 637.203C201.784 636.828 201.746 636.438 201.746 636.047C201.746 633.266 203.574 631 205.845 631C207.025 631 208.091 631.609 208.84 632.594C209.766 632.375 210.655 631.953 211.442 631.375C211.137 632.547 210.49 633.531 209.64 634.156C210.464 634.047 211.264 633.766 212 633.375C211.442 634.375 210.744 635.266 209.944 635.984V635.984Z" fill="white"/>
<path d="M261.002 635.872C258.165 635.872 255.876 638.162 255.876 641C255.876 643.838 258.165 646.128 261.002 646.128C263.84 646.128 266.129 643.838 266.129 641C266.129 638.162 263.84 635.872 261.002 635.872ZM261.002 644.334C259.168 644.334 257.669 642.839 257.669 641C257.669 639.161 259.164 637.666 261.002 637.666C262.84 637.666 264.335 639.161 264.335 641C264.335 642.839 262.836 644.334 261.002 644.334V644.334ZM267.534 635.663C267.534 636.327 266.999 636.859 266.339 636.859C265.674 636.859 265.143 636.323 265.143 635.663C265.143 635.002 265.678 634.466 266.339 634.466C266.999 634.466 267.534 635.002 267.534 635.663ZM270.93 636.876C270.854 635.274 270.488 633.855 269.315 632.686C268.146 631.517 266.727 631.151 265.125 631.07C263.474 630.977 258.526 630.977 256.875 631.07C255.278 631.146 253.859 631.512 252.685 632.681C251.512 633.851 251.151 635.27 251.07 636.872C250.977 638.523 250.977 643.472 251.07 645.124C251.146 646.726 251.512 648.145 252.685 649.314C253.859 650.483 255.273 650.849 256.875 650.93C258.526 651.023 263.474 651.023 265.125 650.93C266.727 650.854 268.146 650.488 269.315 649.314C270.484 648.145 270.849 646.726 270.93 645.124C271.023 643.472 271.023 638.528 270.93 636.876V636.876ZM268.797 646.895C268.449 647.77 267.775 648.444 266.896 648.796C265.58 649.319 262.457 649.198 261.002 649.198C259.548 649.198 256.42 649.314 255.108 648.796C254.234 648.448 253.56 647.775 253.207 646.895C252.685 645.579 252.806 642.455 252.806 641C252.806 639.545 252.69 636.417 253.207 635.105C253.555 634.23 254.229 633.556 255.108 633.204C256.424 632.681 259.548 632.802 261.002 632.802C262.457 632.802 265.584 632.686 266.896 633.204C267.771 633.552 268.445 634.225 268.797 635.105C269.319 636.421 269.199 639.545 269.199 641C269.199 642.455 269.319 645.583 268.797 646.895Z" fill="white"/>
<path d="M314.477 651H310.33V637.647H314.477V651ZM312.401 635.826C311.075 635.826 310 634.727 310 633.401C310 632.765 310.253 632.154 310.703 631.703C311.154 631.253 311.764 631 312.401 631C313.038 631 313.649 631.253 314.099 631.703C314.55 632.154 314.803 632.765 314.803 633.401C314.803 634.727 313.727 635.826 312.401 635.826ZM329.996 651H325.858V644.5C325.858 642.951 325.827 640.964 323.702 640.964C321.546 640.964 321.216 642.647 321.216 644.388V651H317.074V637.647H321.051V639.468H321.109C321.663 638.419 323.015 637.312 325.032 637.312C329.229 637.312 330 640.076 330 643.665V651H329.996Z" fill="white"/>
</g>
<defs>
<clipPath id="clip0">
<rect width="1336" height="768" fill="white"/>
</clipPath>
</defs>
</svg>
