<svg width="1336" height="768" viewBox="0 0 1336 768" fill="none" xmlns="http://www.w3.org/2000/svg">
<g clip-path="url(#clip0)">
<rect width="1336" height="768" fill="#F9F9F9"/>
<path d="M34 653.405C34 716.609 73.651 767.753 122.652 767.753L34 653.405Z" fill="#3F3D56"/>
<path d="M122.652 767.753C122.652 703.839 166.9 652.12 221.582 652.12L122.652 767.753Z" fill="#2C2255"/>
<path d="M66.1201 659.135C66.1201 719.172 91.4048 767.753 122.652 767.753L66.1201 659.135Z" fill="#2C2255"/>
<path d="M122.652 767.753C122.652 686.085 173.796 620 237 620L122.652 767.753Z" fill="#3F3D56"/>
<path d="M1418.36 150.613C1417.86 153.177 1417.26 155.714 1416.56 158.226C1416.48 158.517 1416.4 158.805 1416.31 159.096H1406.54C1405.71 159.097 1404.91 159.418 1404.33 159.99C1403.74 160.561 1403.41 161.335 1403.41 162.143V189.181C1403.11 189.716 1402.81 190.247 1402.51 190.778C1400.96 193.521 1399.34 196.232 1397.7 198.909C1370.8 242.415 1333.28 278.822 1288.46 304.916L1291.11 299.101C1290.14 299.035 1289.16 298.97 1288.19 298.905C1267.01 297.499 1245.75 295.941 1225.07 291.318C1203.43 286.483 1182.27 278.095 1165.31 264.189C1148.35 250.278 1135.91 230.413 1134.19 208.92C1133.61 201.533 1134.38 194.106 1136.46 186.979C1140.43 173.259 1149.12 160.916 1161.66 153.612C1181.34 142.143 1207.02 144.48 1227.78 154.021C1248.53 163.558 1265.42 179.344 1281.91 194.857C1265.26 167.132 1242.08 143.636 1214.26 126.295C1205.05 120.567 1195.27 115.466 1187.43 108.045C1179.6 100.628 1173.82 90.2299 1175.21 79.6924C1176.78 67.7403 1186.86 58.6695 1196.96 51.675C1201 48.8806 1205.16 46.2299 1209.45 43.7925C1221.57 36.898 1234.68 31.6967 1248.52 29.7685C1267.27 27.1526 1287.52 31.1222 1301.9 43.1004C1318.1 56.5977 1324.74 78.3648 1324.11 99.1875C1334.09 85.1026 1349.48 74.3213 1366.85 73.8643C1384.9 73.3942 1402.05 84.4628 1411.09 99.6358C1420.12 114.804 1421.74 133.399 1418.36 150.613Z" fill="#E6E6E6"/>
<path d="M1304.21 209.109C1314.78 208.206 1324.54 207.15 1334.78 204.336C1344.71 201.609 1354.26 197.044 1361.32 189.589C1368.92 181.571 1373.03 171.158 1375.92 160.792C1377.54 155.013 1378.86 149.152 1380.11 143.29C1381.47 136.93 1382.68 130.541 1383.73 124.124C1385.83 111.352 1387.33 98.504 1388.23 85.5809C1388.34 84.0123 1388.44 82.4431 1388.53 80.8733C1388.58 79.905 1387.03 79.908 1386.98 80.8733C1386.24 93.6117 1384.91 106.301 1382.99 118.94C1381.1 131.358 1378.68 143.722 1375.61 155.917C1373.01 166.248 1369.64 176.741 1362.97 185.341C1356.71 193.406 1347.67 198.677 1337.91 201.828C1327.98 205.034 1317.51 206.314 1307.13 207.266C1305.86 207.383 1305.48 207.494 1304.21 207.603C1303.22 207.688 1303.21 209.194 1304.21 209.109L1304.21 209.109Z" fill="white"/>
<path d="M1137.35 188.09C1150.69 188.808 1163.88 191.066 1176.67 194.816C1189.45 198.559 1201.74 203.753 1213.28 210.291C1224.43 216.613 1234.77 224.177 1244.11 232.831C1253.17 241.234 1261.25 250.585 1268.2 260.714C1275.17 270.868 1280.95 281.75 1285.43 293.155C1285.98 294.551 1286.5 295.954 1287.01 297.364C1287.33 298.273 1288.83 297.882 1288.5 296.964C1284.31 285.318 1278.79 274.165 1272.04 263.716C1265.29 253.265 1257.37 243.574 1248.42 234.818C1239.32 225.927 1229.2 218.085 1218.26 211.449C1195.27 197.548 1169.22 189.138 1142.24 186.911C1140.61 186.778 1138.98 186.669 1137.35 186.584C1136.36 186.531 1136.36 188.037 1137.35 188.09L1137.35 188.09Z" fill="white"/>
<path d="M1209.87 45.5578C1218.4 48.1903 1226.48 52.0244 1233.86 56.9372C1241.39 61.9915 1248.27 67.92 1254.33 74.5913C1260.72 81.6092 1266.39 89.2061 1271.28 97.2773C1276.47 105.799 1280.98 114.695 1284.76 123.887C1288.66 133.323 1291.94 142.99 1294.58 152.829C1297.26 162.785 1299.36 172.881 1300.86 183.069C1302.35 193.148 1303.25 203.301 1303.56 213.48C1303.87 223.213 1303.57 232.955 1302.67 242.653C1301.84 251.7 1300.34 260.677 1298.16 269.511C1296.23 277.489 1293.5 285.266 1290.02 292.734C1289.22 294.429 1288.36 296.101 1287.46 297.749C1286.99 298.604 1288.33 299.366 1288.8 298.509C1292.64 291.376 1295.71 283.874 1297.96 276.124C1300.47 267.497 1302.3 258.693 1303.42 249.791C1304.66 240.134 1305.26 230.409 1305.22 220.677C1305.2 210.453 1304.57 200.238 1303.34 190.084C1302.12 179.803 1300.29 169.597 1297.88 159.515C1295.48 149.417 1292.42 139.474 1288.74 129.744C1285.2 120.325 1280.95 111.168 1276.04 102.347C1271.36 93.9284 1265.91 85.9378 1259.75 78.4723C1253.9 71.3641 1247.22 64.938 1239.85 59.3227C1232.74 53.9243 1224.88 49.5239 1216.51 46.2508C1214.46 45.4601 1212.39 44.745 1210.29 44.1056C1209.33 43.814 1208.92 45.2675 1209.87 45.5578H1209.87Z" fill="white"/>
<path d="M154.689 642.25L155.726 638.63H149.242V636.282C149.242 635.291 150.148 634.326 153.052 634.326H156V631.245C156 631.245 153.325 631 150.767 631C145.427 631 141.936 632.734 141.936 635.872V638.63H136V642.25H141.936V651H149.242V642.25H154.689Z" fill="white"/>
<path d="M209.944 635.984C209.957 636.203 209.957 636.422 209.957 636.641C209.957 643.312 205.833 651 198.294 651C195.972 651 193.815 650.172 192 648.734C192.33 648.781 192.647 648.797 192.99 648.797C194.906 648.797 196.67 648 198.079 646.641C196.277 646.594 194.766 645.141 194.246 643.141C194.5 643.187 194.754 643.219 195.02 643.219C195.388 643.219 195.756 643.156 196.099 643.047C194.221 642.578 192.812 640.547 192.812 638.094V638.031C193.358 638.406 193.992 638.641 194.665 638.672C193.561 637.766 192.838 636.219 192.838 634.469C192.838 633.531 193.041 632.672 193.396 631.922C195.414 634.984 198.447 636.984 201.848 637.203C201.784 636.828 201.746 636.438 201.746 636.047C201.746 633.266 203.574 631 205.845 631C207.025 631 208.091 631.609 208.84 632.594C209.766 632.375 210.655 631.953 211.442 631.375C211.137 632.547 210.49 633.531 209.64 634.156C210.464 634.047 211.264 633.766 212 633.375C211.442 634.375 210.744 635.266 209.944 635.984V635.984Z" fill="white"/>
<path d="M261.002 635.872C258.165 635.872 255.876 638.162 255.876 641C255.876 643.838 258.165 646.128 261.002 646.128C263.84 646.128 266.129 643.838 266.129 641C266.129 638.162 263.84 635.872 261.002 635.872ZM261.002 644.334C259.168 644.334 257.669 642.839 257.669 641C257.669 639.161 259.164 637.666 261.002 637.666C262.84 637.666 264.335 639.161 264.335 641C264.335 642.839 262.836 644.334 261.002 644.334V644.334ZM267.534 635.663C267.534 636.327 266.999 636.859 266.339 636.859C265.674 636.859 265.143 636.323 265.143 635.663C265.143 635.002 265.678 634.466 266.339 634.466C266.999 634.466 267.534 635.002 267.534 635.663ZM270.93 636.876C270.854 635.274 270.488 633.855 269.315 632.686C268.146 631.517 266.727 631.151 265.125 631.07C263.474 630.977 258.526 630.977 256.875 631.07C255.278 631.146 253.859 631.512 252.685 632.681C251.512 633.851 251.151 635.27 251.07 636.872C250.977 638.523 250.977 643.472 251.07 645.124C251.146 646.726 251.512 648.145 252.685 649.314C253.859 650.483 255.273 650.849 256.875 650.93C258.526 651.023 263.474 651.023 265.125 650.93C266.727 650.854 268.146 650.488 269.315 649.314C270.484 648.145 270.849 646.726 270.93 645.124C271.023 643.472 271.023 638.528 270.93 636.876V636.876ZM268.797 646.895C268.449 647.77 267.775 648.444 266.896 648.796C265.58 649.319 262.457 649.198 261.002 649.198C259.548 649.198 256.42 649.314 255.108 648.796C254.234 648.448 253.56 647.775 253.207 646.895C252.685 645.579 252.806 642.455 252.806 641C252.806 639.545 252.69 636.417 253.207 635.105C253.555 634.23 254.229 633.556 255.108 633.204C256.424 632.681 259.548 632.802 261.002 632.802C262.457 632.802 265.584 632.686 266.896 633.204C267.771 633.552 268.445 634.225 268.797 635.105C269.319 636.421 269.199 639.545 269.199 641C269.199 642.455 269.319 645.583 268.797 646.895Z" fill="white"/>
<path d="M314.477 651H310.33V637.647H314.477V651ZM312.401 635.826C311.075 635.826 310 634.727 310 633.401C310 632.765 310.253 632.154 310.703 631.703C311.154 631.253 311.764 631 312.401 631C313.038 631 313.649 631.253 314.099 631.703C314.55 632.154 314.803 632.765 314.803 633.401C314.803 634.727 313.727 635.826 312.401 635.826ZM329.996 651H325.858V644.5C325.858 642.951 325.827 640.964 323.702 640.964C321.546 640.964 321.216 642.647 321.216 644.388V651H317.074V637.647H321.051V639.468H321.109C321.663 638.419 323.015 637.312 325.032 637.312C329.229 637.312 330 640.076 330 643.665V651H329.996Z" fill="white"/>
</g>
<defs>
<clipPath id="clip0">
<rect width="1336" height="768" fill="white"/>
</clipPath>
</defs>
</svg>
