<svg xmlns="http://www.w3.org/2000/svg" xmlns:xlink="http://www.w3.org/1999/xlink" width="1638.826" height="768.946" viewBox="0 0 1638.826 768.946">
  <defs>
    <linearGradient id="linear-gradient" x1="1" y1="0.448" x2="0" y2="1" gradientUnits="objectBoundingBox">
      <stop offset="0" stop-color="#f6b55f"/>
      <stop offset="0.298" stop-color="#aab7ef"/>
      <stop offset="0.586" stop-color="#fcbaaa" stop-opacity="0.729"/>
      <stop offset="1" stop-color="#ffb2ac"/>
    </linearGradient>
    <linearGradient id="linear-gradient-2" x1="0.5" x2="0.5" y2="0.843" gradientUnits="objectBoundingBox">
      <stop offset="0" stop-color="#f9edef"/>
      <stop offset="1" stop-color="#f8486c"/>
    </linearGradient>
    <linearGradient id="linear-gradient-3" x1="0.5" x2="0.5" y2="0.843" gradientUnits="objectBoundingBox">
      <stop offset="0" stop-color="#f9edef"/>
      <stop offset="1" stop-color="#7269af"/>
    </linearGradient>
    <linearGradient id="linear-gradient-4" x1="0.043" y1="0.458" x2="1" y2="0.5" gradientUnits="objectBoundingBox">
      <stop offset="0" stop-color="#f9edef"/>
      <stop offset="1" stop-color="#ff4000"/>
    </linearGradient>
    <linearGradient id="linear-gradient-5" x1="0.152" x2="0.786" y2="0.925" gradientUnits="objectBoundingBox">
      <stop offset="0" stop-color="#fff"/>
      <stop offset="1" stop-color="#726ab5"/>
    </linearGradient>
    <clipPath id="clip-path">
      <rect width="477" height="397" fill="none"/>
    </clipPath>
    <linearGradient id="linear-gradient-7" x1="0.008" y1="0.534" x2="0.984" y2="0.502" gradientUnits="objectBoundingBox">
      <stop offset="0" stop-color="#f7b4d3"/>
      <stop offset="0.628" stop-color="#f8b370"/>
      <stop offset="0.828" stop-color="#f6a568"/>
      <stop offset="1" stop-color="#f69661"/>
    </linearGradient>
    <linearGradient id="linear-gradient-8" x1="0.098" y1="0.885" x2="0.898" y2="0.843" gradientUnits="objectBoundingBox">
      <stop offset="0" stop-color="#f69862"/>
      <stop offset="0.309" stop-color="#f7ad6d"/>
      <stop offset="0.573" stop-color="#f7b396"/>
      <stop offset="1" stop-color="#f7b4ce"/>
    </linearGradient>
    <filter id="Path_1786" x="841.603" y="19.568" width="452.217" height="381.896" filterUnits="userSpaceOnUse">
      <feOffset dx="3" dy="3" input="SourceAlpha"/>
      <feGaussianBlur stdDeviation="3" result="blur"/>
      <feFlood flood-opacity="0.388"/>
      <feComposite operator="in" in2="blur"/>
      <feComposite in="SourceGraphic"/>
    </filter>
  </defs>
  <g id="Group_174" data-name="Group 174" transform="translate(-80 -39.054)">
    <path id="Path_1745" data-name="Path 1745" d="M14090.895-1814.956s66.086-186.281,157.429-232.731,296.868,196.121,417.274,0-92.01-375.772,19.889-441.278,292.637,143.638,441.6,176.758,88.955-100.591,109.486-175.456,73.915-95.282,73.915-95.282v767.99Z" transform="translate(-13591.662 2622)" fill="url(#linear-gradient)"/>
    <ellipse id="Ellipse_2985" data-name="Ellipse 2985" cx="173.5" cy="174" rx="173.5" ry="174" transform="translate(677 428)" opacity="0.32" fill="url(#linear-gradient-2)"/>
    <circle id="Ellipse_2987" data-name="Ellipse 2987" cx="76" cy="76" r="76" transform="translate(692 176)" opacity="0.23" fill="url(#linear-gradient-3)"/>
    <circle id="Ellipse_2995" data-name="Ellipse 2995" cx="48" cy="48" r="48" transform="translate(80 663)" fill="#fcefdf" opacity="0.85"/>
    <circle id="Ellipse_2996" data-name="Ellipse 2996" cx="18.028" cy="18.028" r="18.028" transform="translate(347.087 679.309)" fill="#fcefdf" opacity="0.85"/>
    <circle id="Ellipse_2988" data-name="Ellipse 2988" cx="62.5" cy="62.5" r="62.5" transform="translate(1576 124)" opacity="0.39" fill="url(#linear-gradient-4)"/>
    <ellipse id="Ellipse_2989" data-name="Ellipse 2989" cx="36.5" cy="37" rx="36.5" ry="37" transform="translate(1426 75)" fill="rgba(246,181,95,0.8)" opacity="0.39"/>
    <circle id="Ellipse_2986" data-name="Ellipse 2986" cx="223" cy="223" r="223" transform="translate(963 62)" opacity="0.32" fill="url(#linear-gradient-5)"/>
    <g id="Scroll_Group_1" data-name="Scroll Group 1" transform="translate(1222 411)" clip-path="url(#clip-path)" style="isolation: isolate">
      <circle id="Ellipse_2997" data-name="Ellipse 2997" cx="238.5" cy="238.5" r="238.5" opacity="0.13" fill="url(#linear-gradient-5)"/>
    </g>
    <path id="Path_1785" data-name="Path 1785" d="M18.38.015,398.537,14.529c10.546.4,19.421,9.014,19.824,19.235l8.185,207.767c.4,10.22-7.82,18.179-18.366,17.777L28.023,244.793C17.477,244.39,8.6,235.778,8.2,225.558L.014,17.791C-.388,7.571,7.834-.388,18.38.015Z" transform="translate(927.172 298.786) rotate(-34)" opacity="0.96" fill="url(#linear-gradient-7)"/>
    <g transform="matrix(1, 0, 0, 1, 80, 39.05)" filter="url(#Path_1786)">
      <path id="Path_1786-2" data-name="Path 1786" d="M193.829,2.367a19.671,19.671,0,0,1,19.978.763L407.99,123.246c16.8,10.394,10.626,34.631-8.639,33.9L19.88,142.654C.615,141.918-7.494,117.136,8.54,108Z" transform="matrix(-0.83, 0.56, -0.56, -0.83, 1281.82, 155.86)" fill="url(#linear-gradient-8)"/>
    </g>
    <g id="g10" transform="translate(1273.302 475.445)">
      <g id="g12">
        <g id="Group_165" data-name="Group 165">
          <path id="path46" d="M1733.912-705.1l.156,0a2.014,2.014,0,0,0,2.13-2.074l-8.468-77.77-7.388.607L1732.5-706.15a1.349,1.349,0,0,0,1.411,1.051" transform="translate(-1639.598 994.742)" fill="#8cb4f4"/>
          <path id="path48" d="M1307.152-705.1l-.155,0a2.014,2.014,0,0,1-2.13-2.074l8.468-77.77,7.388.607-12.159,78.187a1.351,1.351,0,0,1-1.412,1.051" transform="translate(-1294.365 994.742)" fill="#8cb4f4"/>
          <path id="path50" d="M2087.178-705.1l.156,0a2.014,2.014,0,0,0,2.131-2.074L2081-784.945l-7.388.607,12.158,78.187a1.35,1.35,0,0,0,1.411,1.051" transform="translate(-1933.13 994.742)" fill="#8cb4f4"/>
          <path id="path52" d="M1258.117-1323.228l-15.03-68.261c-1.929-9.241,6.4-17.693,17.21-17.465l28.986.608c10,.212,18.692,6.366,21.472,15.2l21.988,69.916h-74.626" transform="translate(-1242.808 1521.715)" fill="#8cb4f4"/>
          <path id="path54" d="M1311.891-1323.228l-15.029-68.261c-1.929-9.241,6.4-17.693,17.209-17.465l28.986.608c10,.212,18.692,6.366,21.472,15.2l21.988,69.916h-74.626" transform="translate(-1287.49 1521.715)" fill="#8cb4f4"/>
          <path id="path56" d="M1337.532-845.228H1452.21a4.043,4.043,0,0,0,4.189-3.853v-4.744a4.043,4.043,0,0,0-4.189-3.853H1333.343v8.6a4.043,4.043,0,0,0,4.189,3.853" transform="translate(-1318.035 1056.165)" fill="#8cb4f4"/>
          <path id="path58" d="M1659.8-845.229h73.1a3.259,3.259,0,0,0,3.375-3.1v-6.243a3.257,3.257,0,0,0-3.375-3.1h-73.1a3.257,3.257,0,0,0-3.375,3.1v6.243a3.259,3.259,0,0,0,3.375,3.1" transform="translate(-1586.485 1056.165)" fill="#8cb4f4"/>
          <g id="g80" transform="translate(193.564)">
            <path id="path82" d="M2432.615-2090.727h-41.581a3.353,3.353,0,0,1-3.474-3.192v-36.91a3.353,3.353,0,0,1,3.474-3.192h41.581a3.35,3.35,0,0,1,3.47,3.192v36.91a3.35,3.35,0,0,1-3.47,3.192" transform="translate(-2387.561 2134.021)" fill="#c0d8fb"/>
          </g>
          <g id="g84" transform="translate(195.67 1.875)">
            <path id="path86" d="M2441.161-2082.42h-37.977a3.06,3.06,0,0,1-3.17-2.916v-33.714a3.058,3.058,0,0,1,3.17-2.913h37.977a3.059,3.059,0,0,1,3.17,2.913v33.714a3.061,3.061,0,0,1-3.17,2.916" transform="translate(-2400.014 2121.963)" fill="#dfebfd"/>
          </g>
          <g id="g88" transform="translate(216.823 4.902)">
            <path id="path90" d="M2525.115-2101.572a.965.965,0,0,1,1-.925.966.966,0,0,1,1.005.925.966.966,0,0,1-1.005.925.965.965,0,0,1-1-.925" transform="translate(-2525.115 2102.496)" fill="#b7d3f3"/>
          </g>
          <g id="g92" transform="translate(224.805 6.657)">
            <path id="path94" d="M2572.451-2090.741a1.052,1.052,0,0,1,1.368-.357.886.886,0,0,1,.389,1.258,1.051,1.051,0,0,1-1.365.357.887.887,0,0,1-.392-1.258" transform="translate(-2572.324 2091.216)" fill="#b7d3f3"/>
          </g>
          <g id="g96" transform="translate(231.421 12.063)">
            <path id="path98" d="M2611.906-2056.306a1.058,1.058,0,0,1,1.388.278.88.88,0,0,1-.3,1.277,1.057,1.057,0,0,1-1.388-.275.882.882,0,0,1,.3-1.279" transform="translate(-2611.446 2056.453)" fill="#b7d3f3"/>
          </g>
          <g id="g100" transform="translate(234.319 20.069)">
            <path id="path102" d="M2629.594-2004.97a.966.966,0,0,1,1,.925.967.967,0,0,1-1,.924.966.966,0,0,1-1-.924.965.965,0,0,1,1-.925" transform="translate(-2628.589 2004.97)" fill="#b7d3f3"/>
          </g>
          <g id="g104" transform="translate(231.85 28.918)">
            <path id="path106" d="M2615.7-1947.795a.871.871,0,0,1,0,1.306,1.066,1.066,0,0,1-1.419,0,.872.872,0,0,1,0-1.306,1.066,1.066,0,0,1,1.419,0" transform="translate(-2613.99 1948.065)" fill="#b7d3f3"/>
          </g>
          <g id="g108" transform="translate(225.537 34.738)">
            <path id="path110" d="M2578.37-1910.371a.873.873,0,0,1,0,1.307,1.072,1.072,0,0,1-1.424,0,.873.873,0,0,1,0-1.307,1.072,1.072,0,0,1,1.424,0" transform="translate(-2576.652 1910.642)" fill="#b7d3f3"/>
          </g>
          <g id="g112" transform="translate(216.823 37.085)">
            <path id="path114" d="M2525.115-1894.628a.965.965,0,0,1,1-.925.966.966,0,0,1,1.005.925.965.965,0,0,1-1.005.922.965.965,0,0,1-1-.922" transform="translate(-2525.115 1895.552)" fill="#b7d3f3"/>
          </g>
          <g id="g116" transform="translate(208.807 6.657)">
            <path id="path118" d="M2479.591-2090.738a1.057,1.057,0,0,0-1.369-.361.894.894,0,0,0-.39,1.259,1.059,1.059,0,0,0,1.369.359.888.888,0,0,0,.39-1.257" transform="translate(-2477.707 2091.215)" fill="#b7d3f3"/>
          </g>
          <g id="g120" transform="translate(202.19 12.063)">
            <path id="path122" d="M2440.127-2056.3a1.059,1.059,0,0,0-1.391.276.882.882,0,0,0,.3,1.277,1.061,1.061,0,0,0,1.391-.276.88.88,0,0,0-.3-1.277" transform="translate(-2438.576 2056.45)" fill="#b7d3f3"/>
          </g>
          <g id="g124" transform="translate(199.294 20.069)">
            <path id="path126" d="M2422.454-2004.972a.968.968,0,0,0-1.007.924.968.968,0,0,0,1.007.924.968.968,0,0,0,1-.924.968.968,0,0,0-1-.924" transform="translate(-2421.447 2004.972)" fill="#b7d3f3"/>
          </g>
          <g id="g128" transform="translate(201.762 28.917)">
            <path id="path130" d="M2436.338-1947.8a.87.87,0,0,0,0,1.306,1.067,1.067,0,0,0,1.423,0,.873.873,0,0,0,0-1.306,1.067,1.067,0,0,0-1.423,0" transform="translate(-2436.043 1948.075)" fill="#b7d3f3"/>
          </g>
          <g id="g132" transform="translate(208.075 34.738)">
            <path id="path134" d="M2473.672-1910.374a.873.873,0,0,0,0,1.307,1.072,1.072,0,0,0,1.423,0,.873.873,0,0,0,0-1.307,1.072,1.072,0,0,0-1.423,0" transform="translate(-2473.377 1910.645)" fill="#b7d3f3"/>
          </g>
          <g id="g136" transform="translate(217.554 20.068)">
            <path id="path138" d="M2529.442-2004.049a.969.969,0,0,1,1.007-.926.968.968,0,0,1,1,.926.968.968,0,0,1-1,.924.968.968,0,0,1-1.007-.924" transform="translate(-2529.442 2004.975)" fill="#b7d3f3"/>
          </g>
          <g id="g140" transform="translate(218.423 9.443)">
            <path id="path142" d="M2534.851-2061.746h-.276v-11.55h.276v11.55" transform="translate(-2534.575 2073.296)" fill="#b7d3f3"/>
          </g>
          <g id="g144" transform="translate(218.181 15.871)">
            <path id="path146" d="M2533.657-2026.561l-.51-.595,6.658-4.806.508.595-6.655,4.807" transform="translate(-2533.146 2031.962)" fill="#b7d3f3"/>
          </g>
          <path id="path148" d="M1695.812-958.377c-6.2,9.932-14.007,13.764-14.007,13.764h-32.463s51.2-21.338,46.47-13.764" transform="translate(-1580.603 1142.578)" fill="#233862"/>
          <g id="g150" transform="translate(153.625 260.625)">
            <path id="path152" d="M2152.98-435.869c-.349,3.133,4.388,3.942,9.883,4.249s3.821,1.325,11.341,2.654,10.559-.537,11.116-1.468c.494-.825-3-2.159-6.709-3.664-.466-.189-.936-.382-1.4-.577-4.182-1.74-6.5-5.227-9.738-8.472-3.066-3.075-5.9-12.845-5.9-12.845l-10.214-2.113s2.773,8.8,3.725,12.551c.562,2.208-.332,4.661-1.121,6.527a11.64,11.64,0,0,0-.982,3.158" transform="translate(-2151.358 458.105)" fill="#ffb27d"/>
          </g>
          <g id="g154" transform="translate(155.229 279.704)">
            <path id="path156" d="M2170.744-328.019c5.495.3,3.821,1.325,11.341,2.654s10.559-.537,11.116-1.468c.493-.825-3-2.159-6.709-3.664l-.059.058a23.271,23.271,0,0,1-11.414.012c-4.967-1.294-9.755-4.081-13.175-5a11.623,11.623,0,0,0-.982,3.158c-.349,3.133,4.388,3.942,9.882,4.249" transform="translate(-2160.844 335.425)" fill="#0f2549"/>
          </g>
          <g id="g158" transform="translate(41.267 145.949)">
            <path id="path160" d="M1585.37-1167.435c-5.494-3.548-41.85-9.876-60.4-11.707l-20.5-16.372s-17.457,23.779-17.594,41.969c-.062,8.48,4.183,9.322,4.183,9.324s65.739.45,68.62.721c4.717.448,10.938,11.255,12.492,21.1s28.968,49.875,28.968,49.875,5.717,1.686,8.36,1.543a8.861,8.861,0,0,0,4.16-1.03s-15.884-87.416-28.281-95.422" transform="translate(-1486.867 1195.514)" fill="#233862"/>
          </g>
          <g id="g162" transform="translate(136.621 260.625)">
            <path id="path164" d="M2052.421-435.87c-.351,3.133,4.388,3.942,9.881,4.249s3.822,1.325,11.341,2.654,10.56-.537,11.114-1.468c.5-.825-2.991-2.159-6.708-3.664-.465-.189-.935-.381-1.4-.576-4.184-1.74-6.5-5.227-9.739-8.472-3.066-3.075-5.9-12.845-5.9-12.845l-10.213-2.113s2.772,8.8,3.726,12.551c.562,2.208-.334,4.661-1.123,6.527a11.6,11.6,0,0,0-.98,3.158" transform="translate(-2050.798 458.106)" fill="#ffb27d"/>
          </g>
          <g id="g166" transform="translate(138.226 279.704)">
            <path id="path168" d="M2070.189-328.019c5.494.3,3.822,1.325,11.341,2.654s10.56-.537,11.114-1.468c.5-.825-2.991-2.159-6.708-3.664l-.058.058a23.268,23.268,0,0,1-11.413.012c-4.968-1.294-9.755-4.081-13.177-5a11.587,11.587,0,0,0-.98,3.158c-.351,3.133,4.387,3.942,9.881,4.249" transform="translate(-2060.289 335.426)" fill="#233862"/>
          </g>
          <path id="path170" d="M1483.926-1167.438c-4.775-3.083-19.136-5.474-34.988-7.247a10.408,10.408,0,0,1-9.052-7.361h0l-36.872-13.471s-17.454,23.779-17.594,41.97c-.063,8.48,4.184,9.322,4.184,9.324s65.739.45,68.62.722c4.716.448,10.939,11.255,12.492,21.1s28.968,49.876,28.968,49.876,5.718,1.686,8.36,1.543a8.855,8.855,0,0,0,4.16-1.031s-15.885-87.416-28.278-95.422" transform="translate(-1361.305 1341.466)" fill="#2b478b"/>
          <path id="path172" d="M1346.732-1847.355c-5.068-2.449-12.776-2.778-14.03-2.934-14.988-1.852-24.008,18.178-24.54,24.247-.976,11.188-7.411,12.893-16.469,19.9-18.161,14.048-12.835,30.372-2.9,36.439,5.956,3.639,16.46,0,16.46,0,.149.1,28.722-14.691,42.806-21.824,21.116-2.76,11.588-49.592-1.323-55.827" transform="translate(-1273.451 1894.514)" fill="#233862"/>
          <path id="path174" d="M1559.22-1619.646c.068.031-6.66,2.845-11.514,1.369-4.568-1.383-8.59-7.707-8.527-7.718,1.984-.263,4-2.063,4.561-12.721l.877.2,14.76,3.432s-.584,4.3-.825,8.367c-.2,3.415-.16,6.662.668,7.069" transform="translate(-1489.066 1715.742)" fill="#ffb27d"/>
          <path id="path176" d="M1584.065-1628.967s0,.885-.552,4.885c-8.346-1.937-12.028-4.481-14.623-7.394l15.175,2.509" transform="translate(-1513.752 1709.628)" fill="#ed975d"/>
          <path id="path178" d="M1562.953-1773.172s-19.52,2.924-21.309-8.283-5.519-18.377,6.867-20.718,15.5,1.609,17.085,5.217,2.387,22.736-2.642,23.785" transform="translate(-1489.493 1854.374)" fill="#ffb27d"/>
          <path id="path180" d="M1536.945-1812.259s-8.863,12.868-16.776,15.916-11.8,1.5-11.8,1.5a29.223,29.223,0,0,0,4.538-11.759,5.608,5.608,0,0,1,3.7-4.435c5.679-2.092,16.663-5.391,20.333-1.221" transform="translate(-1463.466 1863.991)" fill="#233862"/>
          <path id="path182" d="M1631.329-1812.059s5.194,2.449,7.334,4.746c2.065,2.214,4.45,8.225,4.279,10.925,0,0,2.563-12.936-2.775-17.384-5.661-4.717-8.838,1.713-8.838,1.713" transform="translate(-1565.635 1865.034)" fill="#233862"/>
          <path id="path184" d="M1491.6-1530.666c-.591,36.489-.162,28.863-4.5,32.326-1.046.834-3.984,1.331-7.855,1.566-12.165.742-33.549-1.1-34.363-3.168-2.807-7.153-.825-9.376-3.165-20.331-.246-1.165-.548-2.426-.9-3.8-1.952-7.523-3.851-10.083,3.073-22.168,6.281-10.948,13.667-19.843,14.253-19.522,16.568,9.047,17.136,1.464,17.136,1.464s16.616,15.835,16.325,33.632" transform="translate(-1405.829 1654.14)" fill="#fff"/>
          <path id="path186" d="M1653.5-1556.3s16.958,2.644,18.96,9.393,13.781,46.44,13.781,46.44-8.666,1.433-12.67-2.25-13.933-34.165-13.933-34.165L1653.5-1556.3" transform="translate(-1584.058 1646.145)" fill="#fff"/>
          <path id="path188" d="M1492.552-1332.223c-12.165.742-33.549-1.1-34.363-3.168-2.807-7.154-.825-9.376-3.165-20.331l5.866-15.194s-.969,16.922,4.457,21.371,22.216,8.593,24.854,12.31a13.065,13.065,0,0,1,2.352,5.012" transform="translate(-1419.14 1489.589)" fill="#ebf3ff"/>
          <path id="path190" d="M1594.543-1177.142s12-2.457,13.937-1.479,6.671,4.547,7.262,5.789-4.311-.944-5.9-1.338c-1.035-.255-3.754.616-5.1,1.028-5.663,1.735-9.135.842-9.135.842l-1.06-4.844" transform="translate(-1535.068 1327.392)" fill="#ffb27d"/>
          <path id="path192" d="M1356.825-1565.716s-16.985.912-22.565,8.068c-7.852,10.075-23.431,53.007-14.5,58.732,10.055,6.448,45.762,1.686,45.762,1.686s1.188-5.107-.467-7.579-28.517-6.461-29.757-7.6,15.5-22.238,15.5-25.66,6.033-27.646,6.033-27.646" transform="translate(-1304.517 1654.094)" fill="#fff"/>
          <path id="path194" d="M1680.409-1157.61s2.514,2.982,3.339,3.338a2.647,2.647,0,0,0,1.357.268l-1.7-2.806-3-.8" transform="translate(-1606.416 1309.454)" fill="#ffb27d"/>
          <path id="path196" d="M1676.969-1177.37l7.311,3.266a1.342,1.342,0,0,1-1.211.429,18.6,18.6,0,0,1-3.17-.8l-2.931-2.895" transform="translate(-1603.557 1326.141)" fill="#ffb27d"/>
          <path id="path198" d="M1669.393-1141.109h-33.957a2.6,2.6,0,0,1,2.708-2.488h31.25v2.488" transform="translate(-1569.047 1297.62)" fill="#ed7d2b"/>
          <path id="path200" d="M1772.128-1346.3h52.5l-12.594,34.011H1759.2l12.932-34.011" transform="translate(-1671.881 1468.803)" fill="#ed7d2b"/>
          <path id="path202" d="M1829.2-1346.317l-12.594,34.014h-52.839l12.934-34.014h52.5" transform="translate(-1675.68 1468.814)" fill="#f99746"/>
          <path id="path204" d="M1957.869-1251.75a3.36,3.36,0,0,1-3.15,2.354,1.852,1.852,0,0,1-1.966-2.354,3.359,3.359,0,0,1,3.147-2.353,1.852,1.852,0,0,1,1.968,2.353" transform="translate(-1832.654 1390.941)" fill="#fff"/>
          <g id="g206" transform="translate(52.9 156.511)">
            <path id="path208" d="M1557.416-1119.945h230.07a1.687,1.687,0,0,0,1.752-1.611v-4.431a1.687,1.687,0,0,0-1.752-1.611h-230.07a1.686,1.686,0,0,0-1.752,1.611v4.431a1.686,1.686,0,0,0,1.752,1.611" transform="translate(-1555.665 1127.598)" fill="#182d4f"/>
          </g>
          <g id="g210" transform="translate(264.312 160.405)">
            <path id="path212" d="M2832.012-972.752l.1-.01a1.991,1.991,0,0,0,1.865-2.163l-20.5-127.636-7.5.2,24.119,128.329a1.717,1.717,0,0,0,1.924,1.283" transform="translate(-2805.969 1102.561)" fill="#182d4f"/>
          </g>
          <path id="path214" d="M1510.729-972.748l-.1-.01a1.988,1.988,0,0,1-1.865-2.163l20.5-127.636,7.505.2L1512.65-974.032a1.711,1.711,0,0,1-1.921,1.284" transform="translate(-1463.781 1262.963)" fill="#182d4f"/>
          <path id="path216" d="M1791.43-972.748l-.1-.01a1.986,1.986,0,0,1-1.862-2.163l20.5-127.636,7.507.2-24.123,128.328a1.715,1.715,0,0,1-1.923,1.284" transform="translate(-1697.02 1262.963)" fill="#182d4f"/>
          <g id="g222" transform="translate(215.363 270.977)">
            <path id="path224" d="M2516.481-372.406h40.686c1.956-2.2,1.235-10.3.939-12.945-.063-.533-.1-.844-.1-.844s-13.893-10.22-15.8-2.395c-.058.245-.129.485-.2.721-2.4,7.32-13.189,10.648-19.418,11.572-4.047.606-5.543,2.54-6.1,3.89" transform="translate(-2516.481 391.539)" fill="#233862"/>
          </g>
          <g id="g226" transform="translate(238.926 168.529)">
            <path id="path228" d="M2743.288-1050.32c-1.472,0-69.689,11.78-80.975,24.627-5.636,6.418-6.477,80.537-6.477,80.537s6.977,7.952,22.037,3.334c0,0,11.043-50.71,10.23-66.091-.229-4.253,46.61-.616,55.184-2.656s29.517-19.192,24.9-27.546-24.9-12.2-24.9-12.2" transform="translate(-2655.837 1050.32)" fill="#233862"/>
          </g>
          <g id="g230" transform="translate(220.294 150.38)">
            <path id="path232" d="M2571.043-1167.023s-13.759.17-17.014,1.453-9.858,4.226-8.091,4.678,10.2-.184,12.02.07a33.25,33.25,0,0,0,5.182-.07h6.32l1.583-6.131" transform="translate(-2545.643 1167.023)" fill="#ffb27d"/>
          </g>
          <g id="g234" transform="translate(201.695 103.152)">
            <path id="path236" d="M2463.56-1453.859s-4.691-3.083-9.247-3.682a43.113,43.113,0,0,1-6.65-1.262c-4.207-1.363-12.618-8.318-11.98-9.134,2.037-2.615,11.858,2.919,13.573,2.324s-3.3-3.869-1.553-5.021c.909-.6,3.038,2.414,4.778,2.717,2.353.41,4.2,3.467,4.9,3.626,1.38.311,7.418,4.443,7.418,4.443l-1.244,5.989" transform="translate(-2435.648 1470.713)" fill="#ffb27d"/>
          </g>
          <g id="g238" transform="translate(244.109 83.999)">
            <path id="path240" d="M2761.959-1593.876s-10.475,2.986-20.8,29.125-14.243,27.55-17.994,28.577-36.682,7.054-36.682,7.054v7.757h50.741s19.026-16.644,24.732-27.849,0-44.663,0-44.663" transform="translate(-2686.487 1593.876)" fill="#ed7d2b"/>
          </g>
          <g id="g242" transform="translate(197.384 270.977)">
            <path id="path244" d="M2410.157-372.408h40.68c1.958-2.2,1.238-10.3.942-12.945-.061-.533-.1-.844-.1-.844s-13.895-10.22-15.8-2.395c-.058.245-.127.485-.2.722-2.406,7.319-13.187,10.647-19.415,11.572-4.049.606-5.546,2.54-6.1,3.89" transform="translate(-2410.157 391.541)" fill="#1b3051"/>
          </g>
          <g id="g246" transform="translate(218.823 168.529)">
            <path id="path248" d="M2624.393-1050.317c-1.471,0-69.689,11.779-80.972,24.627-5.64,6.417-6.478,80.536-6.478,80.536s6.973,7.952,22.038,3.334c0,0,11.043-50.709,10.229-66.09-.228-4.253,46.609-.616,55.183-2.656s29.518-19.192,24.9-27.546-24.9-12.2-24.9-12.2" transform="translate(-2536.943 1050.317)" fill="#2b478b"/>
          </g>
          <g id="g250" transform="translate(306.271 58.725)">
            <path id="path252" d="M3058.392-1722.838a71.246,71.246,0,0,0,14.5-2.9c5.559-1.659,10.042-4.084,7.155-8.757-2.663-4.307-6.971-13.928-6.68-21.9l-10.342,7.667-7.028,5.207a71.8,71.8,0,0,0,.8,8.451c.14.981.3,2.039.5,3.171a2.242,2.242,0,0,1-1.154,2.315c-.053.03-.107.061-.157.091-3.492,2.018-1.7,6.969,2.415,6.656" transform="translate(-3054.121 1756.396)" fill="#ffb27d"/>
          </g>
          <g id="g254" transform="translate(308.041 66.329)">
            <path id="path256" d="M3064.694-1703.5s-.361,1.115.254,5.231c6.267-.94,12.124-5.536,12.124-5.536-3.191-.805-4.353-3.975-6.726-3.679l-5.652,3.984" transform="translate(-3064.588 1707.503)" fill="#ed975d"/>
          </g>
          <g id="g258" transform="translate(297.649 34.605)">
            <path id="path260" d="M3007.831-1874.834s24.1,3.682,26.36-10.155,6.894-22.681-8.4-25.617-19.148,1.93-21.124,6.38-3.05,28.078,3.161,29.392" transform="translate(-3003.128 1911.499)" fill="#ffb27d"/>
          </g>
          <g id="g262" transform="translate(295.43 31.662)">
            <path id="path264" d="M2990.22-1926.332c-1.036,3.332,1.735,7.391,6.382,8.727,6.9,1.983,5.38,9.768,8.483,9.662s4.358-4.475,7.132-.984c2.367,2.977-1.97,6.507-1.671,8.14.511,2.8,5.285,8.538,9.589,8.25s12.353-19.093,10.742-24.91-8.052-11.953-14.145-12.8-14.562,1.575-16.516,1.575-9.438.539-10,2.339" transform="translate(-2990.003 1930.425)" fill="#2b478b"/>
          </g>
          <g id="g266" transform="translate(291.373 76.793)">
            <path id="path268" d="M3026.232-1613.8c-3.483-12.893-13.11-26.421-19.618-26.41-11.089.02-27.034,2.712-33.472,17.317-4.743,10.757-11.065,72.636-3.918,77.036,16.337,10.061,54.212,30.6,60.938,9.654,6.167-19.188,2.115-55.221-3.929-77.6" transform="translate(-2966.008 1640.212)" fill="#f99746"/>
          </g>
          <g id="g270" transform="translate(221.369 82.615)">
            <path id="path272" d="M2655.294-1595.015c-3.162-7.57-13.371-10.187-20.328-5.207a120.976,120.976,0,0,0-13.944,11.982c-20.7,20.272-24.9,20.146-28.792,19.727s-36.732-6.83-36.732-6.83a9.415,9.415,0,0,0-2.672,2.986,5.221,5.221,0,0,0-.656,4.142c-1.288-.765,11.642,7.433,18.08,10.7,8.5,4.315,21.3,8.362,26.4,9.9a7.37,7.37,0,0,0,4.434-.062c7.573-2.509,32.994-11.653,53.689-27.522,5.454-4.181,3.45-12.8.517-19.816" transform="translate(-2552.003 1602.773)" fill="#f99746"/>
          </g>
          <g id="g274" transform="translate(304.331 71.714)">
            <path id="path276" d="M3071.412-1667.668l-2.51-5.2s-22.476,1.686-26.256,13.452c0,0,17.424-8,28.765-8.249" transform="translate(-3042.647 1672.871)" fill="#fff"/>
          </g>
          <g id="g278" transform="translate(374.097 209.798)">
            <path id="path280" d="M3468.817-705.1l.159,0a2.014,2.014,0,0,0,2.128-2.074l-8.466-77.77-7.39.608,12.155,78.187a1.356,1.356,0,0,0,1.414,1.051" transform="translate(-3455.248 784.943)" fill="#8cb4f4"/>
          </g>
          <g id="g282" transform="translate(330.516 209.798)">
            <path id="path284" d="M3211.076-705.1l.154,0a2.014,2.014,0,0,0,2.131-2.073l-8.469-77.77-7.386.607,12.157,78.187a1.353,1.353,0,0,0,1.414,1.051" transform="translate(-3197.505 784.942)" fill="#8cb4f4"/>
          </g>
          <g id="g286" transform="translate(259.979 209.797)">
            <path id="path288" d="M2782.642-705.1l-.158,0a2.014,2.014,0,0,1-2.126-2.074l8.464-77.771,7.388.608-12.156,78.187a1.353,1.353,0,0,1-1.413,1.051" transform="translate(-2780.349 784.947)" fill="#73a2e5"/>
          </g>
          <g id="g290" transform="translate(310.926 113.124)">
            <path id="path292" d="M3156-1320.936l8.033-64.954c1.053-9.361-2.351-18.526-17.038-19.236l-25.838-1.448c-15.317-.581-22.23,11.141-24.169,20.165l-15.339,71.4,74.35-5.93" transform="translate(-3081.651 1406.594)" fill="#8cb4f4"/>
          </g>
          <g id="g294" transform="translate(262.09 198.487)">
            <path id="path296" d="M2911.694-845.23H2797.019a4.046,4.046,0,0,1-4.193-3.853v-4.744a4.046,4.046,0,0,1,4.193-3.853h118.865v8.6a4.043,4.043,0,0,1-4.189,3.853" transform="translate(-2792.826 857.68)" fill="#73a2e5"/>
          </g>
          <g id="g298" transform="translate(310.929 198.487)">
            <path id="path300" d="M3152.63-845.23H3084.92a3.141,3.141,0,0,1-3.254-2.992v-6.465a3.14,3.14,0,0,1,3.254-2.992h70.964v9.457a3.141,3.141,0,0,1-3.254,2.992" transform="translate(-3081.666 857.68)" fill="#8cb4f4"/>
          </g>
        </g>
      </g>
    </g>
  </g>
</svg>
