<svg width="59" height="47" viewBox="0 0 59 47" fill="none" xmlns="http://www.w3.org/2000/svg">
<path d="M37.1111 15.6667L42.6667 11M42.6667 11L48.2222 6.33333M42.6667 11L37.1111 6.33333M42.6667 11L48.2222 15.6667M6.55556 4C5.08213 4 3.66905 4.49167 2.62718 5.36684C1.58532 6.242 1 7.42899 1 8.66667V11C1 30.3293 19.6556 46 42.6667 46H45.4444C46.9179 46 48.3309 45.5083 49.3728 44.6332C50.4147 43.758 51 42.571 51 41.3333V33.68C50.9996 33.1905 50.8158 32.7135 50.4749 32.3165C50.1339 31.9195 49.6529 31.6227 49.1 31.468L36.6194 27.9727C35.9852 27.7956 35.2961 27.8165 34.6788 28.0317C34.0614 28.2468 33.5571 28.6417 33.2583 29.144L30.1194 34.4103C23.3175 31.8283 17.8698 27.2515 14.7972 21.5373L21.0667 18.9053C21.6646 18.6544 22.1347 18.2308 22.3909 17.7122C22.647 17.1936 22.6719 16.6148 22.4611 16.082L18.3 5.59367C18.1152 5.12929 17.7612 4.7255 17.2881 4.43949C16.815 4.15347 16.2468 3.99972 15.6639 4H6.55556Z" stroke="#2C2255" stroke-width="2" stroke-linecap="round" stroke-linejoin="round"/>
<rect x="30" width="29" height="18" fill="white"/>
</svg>
