<svg xmlns="http://www.w3.org/2000/svg" xmlns:xlink="http://www.w3.org/1999/xlink" width="1366" height="768" viewBox="0 0 1366 768"><defs><style>.a{fill:#fff;}.b{clip-path:url(#c);}.c{clip-path:url(#a);}.d{fill:#f9f9f9;}.e{fill:#3f3d56;}.f{fill:#2c2255;}.g{fill:#e6e6e6;}</style><clipPath id="a"><rect class="a" width="1366" height="768"/></clipPath><clipPath id="c"><rect width="1366" height="768"/></clipPath></defs><g id="b" class="b"><rect class="a" width="1366" height="768"/><g class="c"><rect class="d" width="1366" height="768"/><path class="e" d="M34,653.405c0,63.2,40.541,114.348,90.643,114.348Z" transform="translate(0.763)"/><path class="f" d="M122.652,767.753c0-63.914,45.242-115.633,101.151-115.633Z" transform="translate(2.754)"/><path class="f" d="M66.12,659.135c0,60.037,25.852,108.618,57.8,108.618Z" transform="translate(1.485)"/><path class="e" d="M122.652,767.753C122.652,686.085,174.944,620,239.568,620Z" transform="translate(2.754)"/><path class="g" d="M1424.745,150.613q-.767,3.846-1.84,7.613c-.082.291-.164.579-.256.87h-9.99a3.266,3.266,0,0,0-2.26.894,2.963,2.963,0,0,0-.941,2.153v27.038q-.46.8-.92,1.6c-1.585,2.743-3.241,5.454-4.918,8.131a317.851,317.851,0,0,1-111.693,106.007l2.709-5.815-2.986-.2c-21.656-1.406-43.393-2.964-64.537-7.587-22.126-4.835-43.761-13.223-61.1-27.129s-30.06-33.776-31.819-55.269a59.9,59.9,0,0,1,2.321-21.941c4.059-13.72,12.944-26.063,25.766-33.367,20.122-11.469,46.379-9.132,67.6.409s38.485,25.323,55.345,40.836a207.988,207.988,0,0,0-69.169-68.562c-9.417-5.728-19.416-10.829-27.432-18.25s-13.916-17.815-12.495-28.353c1.605-11.952,11.912-21.023,22.238-28.017,4.131-2.794,8.384-5.445,12.771-7.882,12.392-6.895,25.8-12.1,39.947-14.024,19.171-2.616,39.876,1.354,54.579,13.332,16.564,13.5,23.353,35.264,22.709,56.087,10.2-14.085,25.94-24.866,43.7-25.323,18.455-.47,35.99,10.6,45.233,25.771S1428.2,133.4,1424.745,150.613Z" transform="translate(25.464)"/><path class="a" d="M1304.227,209.109c10.807-.9,20.787-1.959,31.257-4.773,10.153-2.727,19.917-7.292,27.136-14.747,7.771-8.018,11.973-18.431,14.928-28.8,1.656-5.779,3.006-11.64,4.284-17.5q2.086-9.54,3.7-19.166,3.221-19.158,4.6-38.543.169-2.353.307-4.708c.051-.968-1.534-.965-1.585,0q-1.135,19.108-4.08,38.067c-1.932,12.418-4.407,24.782-7.546,36.977-2.658,10.331-6.1,20.824-12.924,29.424-6.4,8.065-15.643,13.336-25.623,16.487-10.153,3.206-20.858,4.486-31.471,5.438-1.3.117-1.687.228-2.986.337-1.012.085-1.022,1.591,0,1.506Z" transform="translate(29.27)"/><path class="a" d="M1137.366,188.09a179.976,179.976,0,0,1,77.635,22.2,168.037,168.037,0,0,1,56.153,50.423,160.8,160.8,0,0,1,17.617,32.441c.562,1.4,1.094,2.8,1.615,4.209.327.909,1.861.518,1.524-.4a161.5,161.5,0,0,0-16.83-33.248,168.605,168.605,0,0,0-24.151-28.9,170.661,170.661,0,0,0-30.837-23.369,181.476,181.476,0,0,0-77.727-24.538q-2.5-.2-5-.327c-1.012-.053-1.012,1.453,0,1.506Z" transform="translate(25.523)"/><path class="a" d="M1209.882,45.558a95.557,95.557,0,0,1,24.529,11.379,113.747,113.747,0,0,1,20.93,17.654,146.565,146.565,0,0,1,17.331,22.686,188.766,188.766,0,0,1,13.783,26.61,232.118,232.118,0,0,1,10.041,28.942,259.027,259.027,0,0,1,9.182,60.651,229.711,229.711,0,0,1-.91,29.173,177.563,177.563,0,0,1-4.611,26.858,122.232,122.232,0,0,1-8.323,23.223c-.818,1.695-1.7,3.367-2.617,5.015a.785.785,0,0,0,1.37.76,113.267,113.267,0,0,0,9.366-22.385,167.171,167.171,0,0,0,5.583-26.333,216.629,216.629,0,0,0,1.84-29.114,252.946,252.946,0,0,0-1.922-30.593,261.309,261.309,0,0,0-5.583-30.569,239.093,239.093,0,0,0-9.345-29.771,201.644,201.644,0,0,0-12.985-27.4,158.454,158.454,0,0,0-16.656-23.875,121.311,121.311,0,0,0-20.347-19.15,99.86,99.86,0,0,0-23.864-13.072q-3.144-1.186-6.36-2.145a.757.757,0,1,0-.429,1.452Z" transform="translate(27.156)"/></g></g></svg>